<?xml version="1.0" encoding="UTF-8"?><svg xmlns="http://www.w3.org/2000/svg" xmlns:xlink="http://www.w3.org/1999/xlink" height="24px" version="1.1" viewBox="0 0 24 24" width="24px" xml:space="preserve"><g id="Outline_Icons_1_"><path d="M5 .5C3.138.5 1.495 1.343.5 2.631V8.37C1.495 9.657 3.138 10.5 5 10.5c.901 0 1.749-.201 2.5-.55V21.5h3v-16c0-2.761-2.462-5-5.5-5z" fill="none" stroke="#fff" stroke-linecap="round" stroke-linejoin="round" stroke-miterlimit="10"/><path d="M6 8.5A1.5 1.5 0 0 1 7.5 10" fill="none" stroke="#fff" stroke-linecap="round" stroke-linejoin="round" stroke-miterlimit="10"/><path d="M9.5 23.5h-1a1 1 0 0 1-1-1v-1h3v1a1 1 0 0 1-1 1z" fill="none" stroke="#fff" stroke-linecap="round" stroke-linejoin="round" stroke-miterlimit="10"/><path d="M3.25 4.5a.75.75 0 1 0 0 1.5.75.75 0 0 0 0-1.5z" fill="#fff"/><path d="M6.498 2.812c.779.343 1.4.945 1.733 1.687" fill="none" stroke="#fff" stroke-linecap="round" stroke-linejoin="round" stroke-miterlimit="10"/><path d="M19 .5c1.862 0 3.505.843 4.5 2.131V8.37c-.995 1.287-2.638 2.13-4.5 2.13a5.922 5.922 0 0 1-2.5-.55V21.5h-3v-16c0-2.761 2.462-5 5.5-5z" fill="none" stroke="#fff" stroke-linecap="round" stroke-linejoin="round" stroke-miterlimit="10"/><path d="M18 8.5a1.5 1.5 0 0 0-1.5 1.5" fill="none" stroke="#fff" stroke-linecap="round" stroke-linejoin="round" stroke-miterlimit="10"/><path d="M14.5 23.5h1a1 1 0 0 0 1-1v-1h-3v1a1 1 0 0 0 1 1z" fill="none" stroke="#fff" stroke-linecap="round" stroke-linejoin="round" stroke-miterlimit="10"/><path d="M17.502 2.812c-.779.343-1.4.945-1.733 1.687" fill="none" stroke="#fff" stroke-linecap="round" stroke-linejoin="round" stroke-miterlimit="10"/><path d="M20.75 4.5a.75.75 0 1 0 0 1.5.75.75 0 0 0 0-1.5z" fill="#fff"/></g><path fill="none" d="M0 0h24v24H0z" id="Invisible_Shape"/><metadata><rdf:RDF xmlns:rdf="http://www.w3.org/1999/02/22-rdf-syntax-ns#" xmlns:rdfs="http://www.w3.org/2000/01/rdf-schema#" xmlns:dc="http://purl.org/dc/elements/1.1/"><rdf:Description about="https://iconscout.com/legal#licenses" dc:title="airpods" dc:description="airpods" dc:publisher="Iconscout" dc:date="2017-09-19" dc:format="image/svg+xml" dc:language="en"><dc:creator><rdf:Bag><rdf:li>Vincent Le Moign</rdf:li></rdf:Bag></dc:creator></rdf:Description></rdf:RDF></metadata></svg>